<svg width="18" height="18" viewBox="0 0 18 18" fill="none" xmlns="http://www.w3.org/2000/svg">
<path d="M9.00052 4.96669C9.48675 4.96669 9.95307 5.15984 10.2969 5.50366C10.6407 5.84747 10.8339 6.31379 10.8339 6.80002C10.8339 7.04078 10.7864 7.27918 10.6943 7.50161C10.6022 7.72404 10.4671 7.92614 10.2969 8.09638C10.1266 8.26662 9.92454 8.40167 9.70211 8.4938C9.47968 8.58593 9.24128 8.63335 9.00052 8.63335C8.51429 8.63335 8.04798 8.4402 7.70416 8.09638C7.36034 7.75257 7.16719 7.28625 7.16719 6.80002C7.16719 6.31379 7.36034 5.84747 7.70416 5.50366C8.04798 5.15984 8.51429 4.96669 9.00052 4.96669ZM9.00052 1.66669C10.362 1.66669 11.6676 2.20752 12.6303 3.17021C13.593 4.13289 14.1339 5.43858 14.1339 6.80002C14.1339 10.65 9.00052 16.3334 9.00052 16.3334C9.00052 16.3334 3.86719 10.65 3.86719 6.80002C3.86719 5.43858 4.40802 4.13289 5.37071 3.17021C6.33339 2.20752 7.63908 1.66669 9.00052 1.66669ZM9.00052 3.13335C8.02806 3.13335 7.09543 3.51966 6.4078 4.2073C5.72016 4.89493 5.33385 5.82756 5.33385 6.80002C5.33385 7.53335 5.33385 9.00002 9.00052 13.9207C12.6672 9.00002 12.6672 7.53335 12.6672 6.80002C12.6672 5.82756 12.2809 4.89493 11.5932 4.2073C10.9056 3.51966 9.97298 3.13335 9.00052 3.13335Z" fill="#F85B22"/>
</svg>
