<svg width="18" height="18" viewBox="0 0 18 18" fill="none" xmlns="http://www.w3.org/2000/svg">
<path fill-rule="evenodd" clip-rule="evenodd" d="M5.20608 0.916657H12.3935C13.1393 0.916657 13.6526 0.916657 14.0845 1.06626C14.4881 1.20902 14.8534 1.44285 15.152 1.7496C15.4506 2.05635 15.6746 2.42778 15.8064 2.83506C15.9501 3.27286 15.9494 3.79352 15.9494 4.56572V14.9409C15.9494 16.016 14.6829 16.6555 13.8491 15.8921C13.8224 15.8665 13.7868 15.8522 13.7498 15.8522C13.7128 15.8522 13.6772 15.8665 13.6504 15.8921L13.2955 16.2162C12.6149 16.8395 11.5839 16.8395 10.9033 16.2162C10.7802 16.1012 10.6179 16.0372 10.4494 16.0372C10.2809 16.0372 10.1187 16.1012 9.99548 16.2162C9.31495 16.8395 8.28388 16.8395 7.60335 16.2162C7.48017 16.1012 7.31793 16.0372 7.14941 16.0372C6.98089 16.0372 6.81866 16.1012 6.69548 16.2162C6.01495 16.8395 4.98388 16.8395 4.30335 16.2162L3.94915 15.8921C3.92236 15.8662 3.88661 15.8518 3.84941 15.8518C3.81222 15.8518 3.77647 15.8662 3.74968 15.8921C2.91588 16.6547 1.64941 16.016 1.64941 14.9409V4.56646C1.64941 3.79352 1.64941 3.27286 1.79241 2.83506C1.92428 2.42778 2.1482 2.05635 2.44681 1.7496C2.74542 1.44285 3.11069 1.20902 3.51428 1.06626C3.94695 0.915923 4.46028 0.916657 5.20608 0.916657ZM5.31241 2.01666C4.41701 2.01666 4.10828 2.02399 3.87508 2.10539C3.63153 2.19271 3.41133 2.33489 3.23153 2.52093C3.05172 2.70696 2.91712 2.93187 2.83815 3.17826C2.75675 3.42612 2.75015 3.75319 2.75015 4.67132V14.9409C2.75015 15.0289 2.79341 15.0817 2.84841 15.1074C2.87351 15.1193 2.90148 15.1239 2.92908 15.1206C2.95876 15.1155 2.98615 15.1014 3.00755 15.0803C3.23702 14.869 3.53752 14.7518 3.84941 14.7518C4.16131 14.7518 4.46181 14.869 4.69128 15.0803L5.04548 15.4044C5.16865 15.5194 5.33089 15.5834 5.49941 15.5834C5.66793 15.5834 5.83017 15.5194 5.95335 15.4044C6.27927 15.1041 6.70623 14.9374 7.14941 14.9374C7.59259 14.9374 8.01956 15.1041 8.34548 15.4044C8.46866 15.5194 8.63089 15.5834 8.79941 15.5834C8.96794 15.5834 9.13017 15.5194 9.25335 15.4044C9.57927 15.1041 10.0062 14.9374 10.4494 14.9374C10.8926 14.9374 11.3196 15.1041 11.6455 15.4044C11.7687 15.5194 11.9309 15.5834 12.0994 15.5834C12.2679 15.5834 12.4302 15.5194 12.5533 15.4044L12.9075 15.0803C13.137 14.869 13.4375 14.7518 13.7494 14.7518C14.0613 14.7518 14.3618 14.869 14.5913 15.0803C14.6228 15.1096 14.6499 15.1184 14.6705 15.1206C14.6978 15.1238 14.7255 15.1192 14.7504 15.1074C14.8054 15.0817 14.8494 15.0282 14.8494 14.9409V4.67132C14.8494 3.75319 14.8421 3.42612 14.7614 3.17752C14.6822 2.93112 14.5473 2.70626 14.3673 2.52034C14.1872 2.33443 13.9668 2.19245 13.723 2.10539C13.4905 2.02472 13.1818 2.01739 12.2864 2.01739L5.31241 2.01666ZM4.58348 5.49999C4.58348 5.35412 4.64143 5.21423 4.74457 5.11108C4.84772 5.00794 4.98761 4.94999 5.13348 4.94999H5.50015C5.64602 4.94999 5.78591 5.00794 5.88906 5.11108C5.9922 5.21423 6.05015 5.35412 6.05015 5.49999C6.05015 5.64586 5.9922 5.78575 5.88906 5.8889C5.78591 5.99204 5.64602 6.04999 5.50015 6.04999H5.13348C4.98761 6.04999 4.84772 5.99204 4.74457 5.8889C4.64143 5.78575 4.58348 5.64586 4.58348 5.49999ZM7.15015 5.49999C7.15015 5.35412 7.20809 5.21423 7.31124 5.11108C7.41438 5.00794 7.55428 4.94999 7.70015 4.94999H12.4668C12.6127 4.94999 12.7526 5.00794 12.8557 5.11108C12.9589 5.21423 13.0168 5.35412 13.0168 5.49999C13.0168 5.64586 12.9589 5.78575 12.8557 5.8889C12.7526 5.99204 12.6127 6.04999 12.4668 6.04999H7.70015C7.55428 6.04999 7.41438 5.99204 7.31124 5.8889C7.20809 5.78575 7.15015 5.64586 7.15015 5.49999ZM4.58348 8.06666C4.58348 7.92079 4.64143 7.78089 4.74457 7.67775C4.84772 7.5746 4.98761 7.51666 5.13348 7.51666H5.50015C5.64602 7.51666 5.78591 7.5746 5.88906 7.67775C5.9922 7.78089 6.05015 7.92079 6.05015 8.06666C6.05015 8.21253 5.9922 8.35242 5.88906 8.45556C5.78591 8.55871 5.64602 8.61666 5.50015 8.61666H5.13348C4.98761 8.61666 4.84772 8.55871 4.74457 8.45556C4.64143 8.35242 4.58348 8.21253 4.58348 8.06666ZM7.15015 8.06666C7.15015 7.92079 7.20809 7.78089 7.31124 7.67775C7.41438 7.5746 7.55428 7.51666 7.70015 7.51666H12.4668C12.6127 7.51666 12.7526 7.5746 12.8557 7.67775C12.9589 7.78089 13.0168 7.92079 13.0168 8.06666C13.0168 8.21253 12.9589 8.35242 12.8557 8.45556C12.7526 8.55871 12.6127 8.61666 12.4668 8.61666H7.70015C7.55428 8.61666 7.41438 8.55871 7.31124 8.45556C7.20809 8.35242 7.15015 8.21253 7.15015 8.06666ZM4.58348 10.6333C4.58348 10.4875 4.64143 10.3476 4.74457 10.2444C4.84772 10.1413 4.98761 10.0833 5.13348 10.0833H5.50015C5.64602 10.0833 5.78591 10.1413 5.88906 10.2444C5.9922 10.3476 6.05015 10.4875 6.05015 10.6333C6.05015 10.7792 5.9922 10.9191 5.88906 11.0222C5.78591 11.1254 5.64602 11.1833 5.50015 11.1833H5.13348C4.98761 11.1833 4.84772 11.1254 4.74457 11.0222C4.64143 10.9191 4.58348 10.7792 4.58348 10.6333ZM7.15015 10.6333C7.15015 10.4875 7.20809 10.3476 7.31124 10.2444C7.41438 10.1413 7.55428 10.0833 7.70015 10.0833H12.4668C12.6127 10.0833 12.7526 10.1413 12.8557 10.2444C12.9589 10.3476 13.0168 10.4875 13.0168 10.6333C13.0168 10.7792 12.9589 10.9191 12.8557 11.0222C12.7526 11.1254 12.6127 11.1833 12.4668 11.1833H7.70015C7.55428 11.1833 7.41438 11.1254 7.31124 11.0222C7.20809 10.9191 7.15015 10.7792 7.15015 10.6333Z" fill="#F85B22"/>
</svg>
