<svg width="17" height="17" viewBox="0 0 17 17" fill="none" xmlns="http://www.w3.org/2000/svg">
<path d="M6.08317 15.1666C6.45136 15.1666 6.74984 14.8681 6.74984 14.4999C6.74984 14.1317 6.45136 13.8333 6.08317 13.8333C5.71498 13.8333 5.4165 14.1317 5.4165 14.4999C5.4165 14.8681 5.71498 15.1666 6.08317 15.1666Z" stroke="white" stroke-linecap="round" stroke-linejoin="round"/>
<path d="M13.4167 15.1666C13.7849 15.1666 14.0833 14.8681 14.0833 14.4999C14.0833 14.1317 13.7849 13.8333 13.4167 13.8333C13.0485 13.8333 12.75 14.1317 12.75 14.4999C12.75 14.8681 13.0485 15.1666 13.4167 15.1666Z" stroke="white" stroke-linecap="round" stroke-linejoin="round"/>
<path d="M2.1167 1.8667H3.45003L5.22337 10.1467C5.28842 10.4499 5.45715 10.721 5.70051 10.9133C5.94387 11.1055 6.24664 11.2069 6.5567 11.2H13.0767C13.3801 11.1995 13.6744 11.0956 13.9107 10.9053C14.1471 10.715 14.3115 10.4497 14.3767 10.1534L15.4767 5.20003H4.16337" stroke="white" stroke-linecap="round" stroke-linejoin="round"/>
</svg>
