<svg width="33" height="32" viewBox="0 0 33 32" fill="none" xmlns="http://www.w3.org/2000/svg">
<path d="M15.1665 9.33325L11.1665 15.9999H16.4998L12.4998 22.6666" stroke="#6B7280" stroke-width="2" stroke-linecap="round" stroke-linejoin="round"/>
<path d="M20.3079 8H21.8333C22.5405 8 23.2188 8.28095 23.7189 8.78105C24.219 9.28115 24.4999 9.95942 24.4999 10.6667V21.3333C24.4999 22.0406 24.219 22.7189 23.7189 23.219C23.2188 23.719 22.5405 24 21.8333 24H17.9199" stroke="#6B7280" stroke-width="2" stroke-linecap="round" stroke-linejoin="round"/>
<path d="M29.8335 18.6666V13.3333" stroke="#6B7280" stroke-width="2" stroke-linecap="round" stroke-linejoin="round"/>
<path d="M7.35317 24H5.83317C5.12593 24 4.44765 23.719 3.94755 23.219C3.44746 22.7189 3.1665 22.0406 3.1665 21.3333V10.6667C3.1665 9.95942 3.44746 9.28115 3.94755 8.78105C4.44765 8.28095 5.12593 8 5.83317 8H9.74784" stroke="#6B7280" stroke-width="2" stroke-linecap="round" stroke-linejoin="round"/>
</svg>
