<svg width="32" height="32" viewBox="0 0 32 32" fill="none" xmlns="http://www.w3.org/2000/svg">
<path d="M24.0003 27.9999C24.0003 25.1709 22.8765 22.4578 20.8761 20.4574C18.8757 18.4571 16.1626 17.3333 13.3337 17.3333C10.5047 17.3333 7.79157 18.4571 5.79119 20.4574C3.7908 22.4578 2.66699 25.1709 2.66699 27.9999" stroke="#F85B22" stroke-width="2" stroke-linecap="round" stroke-linejoin="round"/>
<path d="M13.3337 17.3333C17.0156 17.3333 20.0003 14.3486 20.0003 10.6667C20.0003 6.98477 17.0156 4 13.3337 4C9.65176 4 6.66699 6.98477 6.66699 10.6667C6.66699 14.3486 9.65176 17.3333 13.3337 17.3333Z" stroke="#F85B22" stroke-width="2" stroke-linecap="round" stroke-linejoin="round"/>
<path d="M29.3337 26.6667C29.3337 22.1733 26.6671 18 24.0004 16C24.8769 15.3424 25.5779 14.4788 26.0411 13.4857C26.5044 12.4926 26.7157 11.4006 26.6564 10.3064C26.5971 9.21219 26.2689 8.14946 25.701 7.21228C25.1331 6.2751 24.3429 5.49237 23.4004 4.93335" stroke="#F85B22" stroke-width="2" stroke-linecap="round" stroke-linejoin="round"/>
</svg>
