<svg width="36" height="36" viewBox="0 0 36 36" fill="none" xmlns="http://www.w3.org/2000/svg">
<path d="M6.00023 21C5.71638 21.001 5.43808 20.9214 5.19766 20.7705C4.95725 20.6196 4.76458 20.4035 4.64206 20.1475C4.51953 19.8914 4.47217 19.6059 4.50548 19.324C4.53879 19.0421 4.6514 18.7754 4.83023 18.555L19.6802 3.255C19.7916 3.12642 19.9434 3.03953 20.1107 3.0086C20.278 2.97766 20.4508 3.00452 20.6008 3.08476C20.7508 3.16499 20.8691 3.29385 20.9362 3.45016C21.0034 3.60648 21.0153 3.78097 20.9702 3.945L18.0902 12.975C18.0053 13.2023 17.9768 13.4468 18.0071 13.6875C18.0374 13.9282 18.1257 14.158 18.2644 14.3571C18.403 14.5563 18.5879 14.7188 18.8031 14.8307C19.0184 14.9427 19.2576 15.0008 19.5002 15H30.0002C30.2841 14.999 30.5624 15.0786 30.8028 15.2295C31.0432 15.3804 31.2359 15.5965 31.3584 15.8525C31.4809 16.1086 31.5283 16.3941 31.495 16.676C31.4617 16.9579 31.3491 17.2246 31.1702 17.445L16.3202 32.745C16.2088 32.8736 16.057 32.9605 15.8898 32.9914C15.7225 33.0223 15.5496 32.9955 15.3996 32.9152C15.2496 32.835 15.1314 32.7062 15.0642 32.5498C14.9971 32.3935 14.9851 32.219 15.0302 32.055L17.9102 23.025C17.9952 22.7977 18.0237 22.5532 17.9933 22.3125C17.963 22.0718 17.8747 21.842 17.7361 21.6429C17.5975 21.4437 17.4126 21.2812 17.1973 21.1693C16.9821 21.0573 16.7429 20.9992 16.5002 21H6.00023Z" stroke="#6B7280" stroke-width="2" stroke-linecap="round" stroke-linejoin="round"/>
</svg>
