<svg width="33" height="32" viewBox="0 0 33 32" fill="none" xmlns="http://www.w3.org/2000/svg">
<path d="M15.1667 28.9734C15.5721 29.2074 16.0319 29.3306 16.5 29.3306C16.9681 29.3306 17.4279 29.2074 17.8333 28.9734L27.1667 23.64C27.5717 23.4062 27.908 23.07 28.1421 22.6651C28.3761 22.2603 28.4995 21.801 28.5 21.3334V10.6667C28.4995 10.1991 28.3761 9.73978 28.1421 9.33492C27.908 8.93005 27.5717 8.59385 27.1667 8.36003L17.8333 3.0267C17.4279 2.79265 16.9681 2.66943 16.5 2.66943C16.0319 2.66943 15.5721 2.79265 15.1667 3.0267L5.83333 8.36003C5.42835 8.59385 5.09197 8.93005 4.85795 9.33492C4.62392 9.73978 4.50048 10.1991 4.5 10.6667V21.3334C4.50048 21.801 4.62392 22.2603 4.85795 22.6651C5.09197 23.07 5.42835 23.4062 5.83333 23.64L15.1667 28.9734Z" stroke="#6B7280" stroke-width="2" stroke-linecap="round" stroke-linejoin="round"/>
<path d="M16.5 29.3333V16" stroke="#6B7280" stroke-width="2" stroke-linecap="round" stroke-linejoin="round"/>
<path d="M4.88672 9.33325L16.5001 15.9999L28.1134 9.33325" stroke="#6B7280" stroke-width="2" stroke-linecap="round" stroke-linejoin="round"/>
<path d="M10.5 5.69336L22.5 12.56" stroke="#6B7280" stroke-width="2" stroke-linecap="round" stroke-linejoin="round"/>
</svg>
