<svg width="33" height="32" viewBox="0 0 33 32" fill="none" xmlns="http://www.w3.org/2000/svg">
<path d="M27.1668 17.3333C27.1668 23.9999 22.5002 27.3333 16.9535 29.2666C16.663 29.365 16.3475 29.3603 16.0602 29.2533C10.5002 27.3333 5.8335 23.9999 5.8335 17.3333V7.99995C5.8335 7.64633 5.97397 7.30719 6.22402 7.05714C6.47407 6.80709 6.81321 6.66662 7.16683 6.66662C9.8335 6.66662 13.1668 5.06662 15.4868 3.03995C15.7693 2.79861 16.1286 2.66602 16.5002 2.66602C16.8717 2.66602 17.231 2.79861 17.5135 3.03995C19.8468 5.07995 23.1668 6.66662 25.8335 6.66662C26.1871 6.66662 26.5263 6.80709 26.7763 7.05714C27.0264 7.30719 27.1668 7.64633 27.1668 7.99995V17.3333Z" stroke="#6B7280" stroke-width="2" stroke-linecap="round" stroke-linejoin="round"/>
</svg>
