<svg width="24" height="24" viewBox="0 0 24 24" fill="none" xmlns="http://www.w3.org/2000/svg">
<path d="M10 5.80798C9.5347 5.80798 9.13637 5.64231 8.80503 5.31098C8.4737 4.97964 8.30803 4.58131 8.30803 4.11598C8.30803 3.65064 8.4737 3.25198 8.80503 2.91998C9.13637 2.58798 9.5347 2.42231 10 2.42298C10.4654 2.42364 10.8637 2.58931 11.195 2.91998C11.5264 3.25064 11.692 3.64931 11.692 4.11598C11.692 4.58131 11.5264 4.97964 11.195 5.31098C10.8637 5.64231 10.4654 5.80798 10 5.80798ZM16.5 18.308C17.2774 18.308 17.9397 18.0343 18.487 17.487C19.0337 16.9396 19.307 16.2773 19.307 15.5C19.307 14.7226 19.0337 14.0606 18.487 13.514C17.9397 12.966 17.2774 12.692 16.5 12.692C15.7227 12.692 15.0607 12.966 14.514 13.514C13.9674 14.062 13.6934 14.724 13.692 15.5C13.6907 16.276 13.9647 16.9383 14.514 17.487C15.0607 18.0336 15.7227 18.307 16.5 18.307M18.823 18.512C18.4817 18.7706 18.1154 18.968 17.724 19.104C17.3327 19.24 16.9247 19.308 16.5 19.308C15.4427 19.308 14.5437 18.9376 13.803 18.197C13.0624 17.4563 12.6924 16.5573 12.693 15.5C12.6937 14.4426 13.0637 13.5436 13.803 12.803C14.5424 12.0623 15.4414 11.6923 16.5 11.693C17.5587 11.6936 18.4577 12.0636 19.197 12.803C19.9364 13.5423 20.3064 14.4413 20.307 15.5C20.307 15.9246 20.2394 16.3326 20.104 16.724C19.968 17.116 19.7704 17.4823 19.511 17.823L21.954 20.246C22.0474 20.3386 22.094 20.4563 22.094 20.599C22.094 20.7423 22.0477 20.8606 21.955 20.954C21.8624 21.0473 21.7444 21.094 21.601 21.094C21.4584 21.094 21.34 21.0473 21.246 20.954L18.823 18.512ZM11.193 18.687C11.327 18.9203 11.4784 19.1363 11.647 19.335C11.8157 19.5336 11.9974 19.7213 12.192 19.898V21C12.192 21.142 12.144 21.2606 12.048 21.356C11.952 21.452 11.8334 21.5 11.692 21.5C11.55 21.5 11.431 21.452 11.335 21.356C11.239 21.26 11.1914 21.1413 11.192 21L11.193 18.687ZM8.80803 15.269V21C8.80803 21.142 8.76003 21.2606 8.66403 21.356C8.56803 21.4513 8.44903 21.4993 8.30703 21.5C8.16503 21.5006 8.04637 21.4526 7.95103 21.356C7.8557 21.2593 7.80803 21.1406 7.80803 21V8.42598C6.9267 8.35531 6.05403 8.25898 5.19003 8.13698C4.32603 8.01498 3.4607 7.86264 2.59403 7.67998C2.4387 7.63864 2.3087 7.56031 2.20403 7.44498C2.09937 7.32964 2.0697 7.19764 2.11503 7.04898C2.16037 6.90031 2.25103 6.79131 2.38703 6.72198C2.5237 6.65264 2.6697 6.63864 2.82503 6.67998C4.00303 6.94998 5.1917 7.14164 6.39103 7.25498C7.59037 7.36831 8.79337 7.42431 10 7.42298C11.2067 7.42164 12.41 7.36498 13.61 7.25298C14.81 7.14098 15.9984 6.94964 17.175 6.67898C17.3304 6.63764 17.4764 6.65098 17.613 6.71898C17.7504 6.78698 17.841 6.89364 17.885 7.03898C17.9297 7.19364 17.8997 7.32864 17.795 7.44398C17.6904 7.55931 17.5604 7.63764 17.405 7.67898C16.541 7.86698 15.6767 8.02098 14.812 8.14098C13.9474 8.26098 13.074 8.35498 12.192 8.42298V11.102C11.6514 11.6086 11.2147 12.2096 10.882 12.905C10.55 13.6003 10.365 14.35 10.327 15.154V15.212C10.327 15.2313 10.329 15.2503 10.333 15.269H8.80803Z" fill="black"/>
</svg>
