<svg width="18" height="18" viewBox="0 0 18 18" fill="none" xmlns="http://www.w3.org/2000/svg">
<g clip-path="url(#clip0_1044_1830)">
<path d="M4.89378 9.00002L8.41378 11.9333L13.1071 6.06668M9.00044 17.2133C7.92185 17.2133 6.85382 17.0009 5.85734 16.5881C4.86085 16.1754 3.95542 15.5704 3.19274 14.8077C2.43006 14.045 1.82507 13.1396 1.41231 12.1431C0.999554 11.1466 0.787109 10.0786 0.787109 9.00002C0.787109 7.92143 0.999554 6.8534 1.41231 5.85691C1.82507 4.86042 2.43006 3.95499 3.19274 3.19231C3.95542 2.42963 4.86085 1.82464 5.85734 1.41188C6.85382 0.999126 7.92185 0.786682 9.00044 0.786682C11.1788 0.786682 13.2678 1.65201 14.8081 3.19231C16.3484 4.73261 17.2138 6.8217 17.2138 9.00002C17.2138 11.1783 16.3484 13.2674 14.8081 14.8077C13.2678 16.348 11.1788 17.2133 9.00044 17.2133Z" stroke="#F85B22" stroke-width="1.17333"/>
</g>
<defs>
<clipPath id="clip0_1044_1830">
<rect width="17.6" height="17.6" fill="white" transform="translate(0.200195 0.200012)"/>
</clipPath>
</defs>
</svg>
